<svg width="20" height="20" viewBox="0 0 20 20" fill="none" xmlns="http://www.w3.org/2000/svg">
<path d="M15.8333 7.91668H15.5667L14.525 5.31668C14.339 4.85439 14.019 4.45825 13.6062 4.1791C13.1934 3.89995 12.7066 3.75052 12.2083 3.75001H7.20832C6.6294 3.74835 6.06784 3.94767 5.6195 4.31394C5.17117 4.68021 4.86384 5.19072 4.74999 5.75834L4.31666 7.91668H4.16666C3.50362 7.91668 2.86773 8.18007 2.39889 8.64891C1.93005 9.11775 1.66666 9.75364 1.66666 10.4167V12.9167C1.66666 13.1377 1.75445 13.3497 1.91073 13.5059C2.06701 13.6622 2.27898 13.75 2.49999 13.75H3.33332C3.33332 14.4131 3.59672 15.0489 4.06556 15.5178C4.5344 15.9866 5.17028 16.25 5.83332 16.25C6.49636 16.25 7.13225 15.9866 7.60109 15.5178C8.06993 15.0489 8.33332 14.4131 8.33332 13.75H11.6667C11.6667 14.4131 11.93 15.0489 12.3989 15.5178C12.8677 15.9866 13.5036 16.25 14.1667 16.25C14.8297 16.25 15.4656 15.9866 15.9344 15.5178C16.4033 15.0489 16.6667 14.4131 16.6667 13.75H17.5C17.721 13.75 17.933 13.6622 18.0892 13.5059C18.2455 13.3497 18.3333 13.1377 18.3333 12.9167V10.4167C18.3333 9.75364 18.0699 9.11775 17.6011 8.64891C17.1322 8.18007 16.4964 7.91668 15.8333 7.91668ZM10.8333 5.41668H12.2083C12.3738 5.41817 12.5351 5.4689 12.6716 5.5624C12.8082 5.6559 12.9138 5.78794 12.975 5.94168L13.7667 7.91668H10.8333V5.41668ZM6.38332 6.08334C6.42228 5.89228 6.52701 5.72093 6.67928 5.59912C6.83154 5.4773 7.0217 5.41275 7.21666 5.41668H9.16666V7.91668H6.01666L6.38332 6.08334ZM5.83332 14.5833C5.66851 14.5833 5.50739 14.5345 5.37035 14.4429C5.23331 14.3513 5.1265 14.2212 5.06342 14.0689C5.00035 13.9166 4.98385 13.7491 5.016 13.5874C5.04816 13.4258 5.12752 13.2773 5.24407 13.1608C5.36061 13.0442 5.5091 12.9648 5.67075 12.9327C5.8324 12.9005 5.99995 12.917 6.15223 12.9801C6.3045 13.0432 6.43465 13.15 6.52621 13.287C6.61778 13.4241 6.66666 13.5852 6.66666 13.75C6.66666 13.971 6.57886 14.183 6.42258 14.3393C6.2663 14.4955 6.05434 14.5833 5.83332 14.5833ZM14.1667 14.5833C14.0018 14.5833 13.8407 14.5345 13.7037 14.4429C13.5666 14.3513 13.4598 14.2212 13.3968 14.0689C13.3337 13.9166 13.3172 13.7491 13.3493 13.5874C13.3815 13.4258 13.4609 13.2773 13.5774 13.1608C13.6939 13.0442 13.8424 12.9648 14.0041 12.9327C14.1657 12.9005 14.3333 12.917 14.4856 12.9801C14.6378 13.0432 14.768 13.15 14.8595 13.287C14.9511 13.4241 15 13.5852 15 13.75C15 13.971 14.9122 14.183 14.7559 14.3393C14.5996 14.4955 14.3877 14.5833 14.1667 14.5833ZM16.6667 12.0833H16.0167C15.7823 11.8255 15.4967 11.6196 15.1781 11.4786C14.8596 11.3377 14.515 11.2649 14.1667 11.2649C13.8183 11.2649 13.4738 11.3377 13.1552 11.4786C12.8366 11.6196 12.551 11.8255 12.3167 12.0833H7.68332C7.44901 11.8255 7.16339 11.6196 6.84481 11.4786C6.52622 11.3377 6.1817 11.2649 5.83332 11.2649C5.48495 11.2649 5.14042 11.3377 4.82184 11.4786C4.50325 11.6196 4.21764 11.8255 3.98332 12.0833H3.33332V10.4167C3.33332 10.1957 3.42112 9.9837 3.5774 9.82742C3.73368 9.67114 3.94564 9.58334 4.16666 9.58334H15.8333C16.0543 9.58334 16.2663 9.67114 16.4226 9.82742C16.5789 9.9837 16.6667 10.1957 16.6667 10.4167V12.0833Z" fill="#7C8464"/>
</svg>
