<svg width="20" height="20" viewBox="0 0 20 20" fill="none" xmlns="http://www.w3.org/2000/svg">
<path fill-rule="evenodd" clip-rule="evenodd" d="M10.195 2.77676C10.1396 2.73254 10.0709 2.70845 10 2.70845C9.92914 2.70845 9.86037 2.73254 9.805 2.77676L3.2425 8.02676C3.20574 8.05611 3.17607 8.0934 3.15573 8.13581C3.13539 8.17824 3.12487 8.22471 3.125 8.27176V17.0455C3.125 17.218 3.265 17.358 3.4375 17.358H6.875V10.7955C6.875 10.5469 6.97377 10.3084 7.14959 10.1326C7.3254 9.95677 7.56386 9.85801 7.8125 9.85801H12.1875C12.4361 9.85801 12.6746 9.95677 12.8504 10.1326C13.0262 10.3084 13.125 10.5469 13.125 10.7955V17.358H16.5625C16.6454 17.358 16.7249 17.3251 16.7835 17.2665C16.8421 17.2079 16.875 17.1284 16.875 17.0455V8.27051C16.8749 8.22368 16.8644 8.17745 16.844 8.13525C16.8236 8.09306 16.7941 8.05599 16.7575 8.02676L10.195 2.77676ZM8.6325 1.31301C9.02043 1.00253 9.5025 0.833374 9.99937 0.833374C10.4963 0.833374 10.9783 1.00253 11.3663 1.31301L17.9288 6.56301C18.4475 6.978 18.75 7.60676 18.75 8.27176V17.0455C18.75 17.6256 18.5195 18.182 18.1092 18.5923C17.699 19.0025 17.1426 19.233 16.5625 19.233H12.1875C11.9389 19.233 11.7004 19.1343 11.5246 18.9584C11.3488 18.7826 11.25 18.5441 11.25 18.2955V11.733H8.75V18.2955C8.75 18.5441 8.65123 18.7826 8.47541 18.9584C8.2996 19.1343 8.06114 19.233 7.8125 19.233H3.4375C2.85734 19.233 2.30094 19.0025 1.8907 18.5923C1.48046 18.182 1.25 17.6256 1.25 17.0455V8.27051C1.25 7.60676 1.5525 6.978 2.07125 6.56301L8.63375 1.31301H8.6325Z" fill="white"/>
</svg>
