<svg width="20" height="20" viewBox="0 0 20 20" fill="none" xmlns="http://www.w3.org/2000/svg">
<path d="M1.66665 2.49996L2.01586 1.74333C1.75783 1.62424 1.4569 1.64485 1.21752 1.79802C0.978138 1.95118 0.833313 2.21577 0.833313 2.49996H1.66665ZM1.66665 15H0.833313C0.833313 15.325 1.0223 15.6204 1.31743 15.7566L1.66665 15ZM7.08331 17.5L6.7341 18.2566C6.99215 18.3757 7.29306 18.3551 7.53244 18.2019C7.77181 18.0488 7.91665 17.7841 7.91665 17.5H7.08331ZM7.08331 4.99996H7.91665C7.91665 4.67492 7.72765 4.37954 7.43252 4.24334L7.08331 4.99996ZM1.31743 15.7566L6.7341 18.2566L7.43252 16.7433L2.01586 14.2433L1.31743 15.7566ZM7.43252 4.24334L2.01586 1.74333L1.31743 3.25659L6.7341 5.75659L7.43252 4.24334ZM6.24998 4.99996V17.5H7.91665V4.99996H6.24998ZM2.49998 15V2.49996H0.833313V15H2.49998Z" fill="#7C8464"/>
<path d="M7.08333 17.5H6.25C6.25 17.7801 6.39075 18.0415 6.62458 18.1957C6.85846 18.3499 7.15412 18.3763 7.41158 18.2659L7.08333 17.5ZM12.9167 15L13.2449 15.7659C13.5513 15.6346 13.75 15.3333 13.75 15H12.9167ZM12.9167 2.49996H13.75C13.75 2.21984 13.6093 1.95847 13.3754 1.80426C13.1415 1.65006 12.8459 1.62366 12.5884 1.73401L12.9167 2.49996ZM7.08333 4.99996L6.75508 4.234C6.44867 4.36534 6.25 4.66659 6.25 4.99996H7.08333ZM7.41158 18.2659L13.2449 15.7659L12.5884 14.234L6.75508 16.734L7.41158 18.2659ZM12.5884 1.73401L6.75508 4.234L7.41158 5.76592L13.2449 3.26592L12.5884 1.73401ZM13.75 15V2.49996H12.0833V15H13.75ZM6.25 4.99996V17.5H7.91667V4.99996H6.25Z" fill="#7C8464"/>
<path d="M12.9166 15H12.0833C12.0833 15.325 12.2723 15.6204 12.5674 15.7566L12.9166 15ZM18.3333 17.5L17.9841 18.2566C18.2421 18.3757 18.5431 18.3551 18.7824 18.2019C19.0218 18.0488 19.1666 17.7841 19.1666 17.5H18.3333ZM18.3333 4.99996H19.1666C19.1666 4.67492 18.9776 4.37954 18.6825 4.24334L18.3333 4.99996ZM12.9166 2.49996L13.2659 1.74333C13.0078 1.62424 12.7069 1.64485 12.4675 1.79802C12.2281 1.95118 12.0833 2.21577 12.0833 2.49996H12.9166ZM12.5674 15.7566L17.9841 18.2566L18.6825 16.7433L13.2659 14.2433L12.5674 15.7566ZM18.6825 4.24334L13.2659 1.74333L12.5674 3.25659L17.9841 5.75659L18.6825 4.24334ZM17.5 4.99996V17.5H19.1666V4.99996H17.5ZM13.75 15V2.49996H12.0833V15H13.75Z" fill="#7C8464"/>
</svg>
